<?xml version="1.0" encoding="UTF-8" standalone="no"?>
<!-- Created with Inkscape (http://www.inkscape.org/) -->

<svg
   xmlns:dc="http://purl.org/dc/elements/1.1/"
   xmlns:cc="http://creativecommons.org/ns#"
   xmlns:rdf="http://www.w3.org/1999/02/22-rdf-syntax-ns#"
   xmlns:svg="http://www.w3.org/2000/svg"
   xmlns="http://www.w3.org/2000/svg"
   xmlns:sodipodi="http://sodipodi.sourceforge.net/DTD/sodipodi-0.dtd"
   xmlns:inkscape="http://www.inkscape.org/namespaces/inkscape"
   width="50"
   height="50"
   id="svg2"
   version="1.1"
   inkscape:version="0.48.4 r9939"
   sodipodi:docname="ro.svg"
   inkscape:export-filename="/home/sean/Desktop/ECE-3574/HW-Implement/hw8/Implement/img/ro.png"
   inkscape:export-xdpi="90"
   inkscape:export-ydpi="90">
  <defs
     id="defs4" />
  <sodipodi:namedview
     id="base"
     pagecolor="#ffffff"
     bordercolor="#666666"
     borderopacity="1.0"
     inkscape:pageopacity="0.0"
     inkscape:pageshadow="2"
     inkscape:zoom="11.7"
     inkscape:cx="26.025641"
     inkscape:cy="25"
     inkscape:document-units="px"
     inkscape:current-layer="layer1"
     showgrid="false"
     inkscape:window-width="1233"
     inkscape:window-height="776"
     inkscape:window-x="47"
     inkscape:window-y="24"
     inkscape:window-maximized="1"
     fit-margin-top="0"
     fit-margin-left="0"
     fit-margin-right="0"
     fit-margin-bottom="0" />
  <metadata
     id="metadata7">
    <rdf:RDF>
      <cc:Work
         rdf:about="">
        <dc:format>image/svg+xml</dc:format>
        <dc:type
           rdf:resource="http://purl.org/dc/dcmitype/StillImage" />
        <dc:title></dc:title>
      </cc:Work>
    </rdf:RDF>
  </metadata>
  <g
     inkscape:label="Layer 1"
     inkscape:groupmode="layer"
     id="layer1"
     transform="translate(0,-1002.3622)">
    <path
       style="fill:#ff0000;fill-opacity:1;stroke:none"
       d="M 25 0 C 11.192884 6.2234041e-06 6.2497008e-17 11.192886 0 25 C -5.7920792e-07 38.80712 11.192882 50 25 50 C 38.807119 50 49.999999 38.80712 50 25 C 50 11.192886 38.807119 6.2497057e-17 25 0 z M 25 7.0625 C 34.901913 7.0625 42.9375 15.098128 42.9375 25 C 42.9375 34.901877 34.901913 42.9375 25 42.9375 C 15.098087 42.9375 7.0624996 34.901877 7.0625 25 C 7.0625 15.098128 15.098089 7.0625045 25 7.0625 z "
       transform="translate(0,1002.3622)"
       id="path2985" />
  </g>
</svg>
